# This file uses centimeters as units for non-parametric coordinates.

mtllib Painel grande teste.mtl
g default
v -14.252074 5.641219 4.864451
v -13.859085 6.026000 4.784553
v -14.252074 5.626915 4.795568
v -13.859085 6.011697 4.715668
v -8.975570 6.026000 4.784553
v -8.582581 5.641219 4.864451
v -8.582581 5.626915 4.795568
v -8.975570 6.011697 4.715668
v -13.859085 4.276818 5.147768
v -14.252074 4.661600 5.067869
v -14.252074 4.647297 4.998985
v -13.859085 4.262515 5.078885
v -8.582581 4.661600 5.067869
v -8.975570 4.276818 5.147768
v -8.975570 4.262515 5.078885
v -8.582581 4.647297 4.998985
v -13.838374 5.962741 4.725834
v -14.202074 5.606637 4.799779
v -8.996281 5.962741 4.725834
v -8.632581 5.606637 4.799779
v -8.632581 4.667575 4.994774
v -8.996281 4.311471 5.068719
v -13.838374 4.311471 5.068719
v -14.202074 4.667575 4.994774
v -13.838374 5.972570 4.773173
v -14.202074 5.616467 4.847118
v -8.996281 5.972570 4.773173
v -8.632581 5.616467 4.847118
v -8.632581 4.677404 5.042113
v -8.996281 4.321301 5.116058
v -13.838374 4.321301 5.116058
v -14.202074 4.677404 5.042113
vt 0.392329 0.500000
vt 0.392329 0.250000
vt 0.607669 0.250000
vt 0.607671 0.500000
vt 0.392329 1.000000
vt 0.392329 0.750000
vt 0.607671 0.750000
vt 0.607671 1.000000
vt 0.625000 0.054994
vt 0.875000 0.054995
vt 0.875000 0.195006
vt 0.625000 0.195005
vt 0.125000 0.054995
vt 0.375000 0.054996
vt 0.374998 0.195005
vt 0.125000 0.195006
vt 0.392329 0.000000
vt 0.607671 0.000000
vt 0.375000 0.554994
vt 0.625000 0.554994
vt 0.375002 1.000000
vt 0.375000 0.695005
vt 0.625000 1.000000
vt 0.625000 0.695005
vt 0.392329 0.500000
vt 0.375000 0.554994
vt 0.607671 0.500000
vt 0.625000 0.554994
vt 0.625000 0.695005
vt 0.607671 0.750000
vt 0.392329 0.750000
vt 0.375000 0.695005
vt 0.392329 0.500000
vt 0.375000 0.554994
vt 0.607671 0.500000
vt 0.625000 0.554994
vt 0.625000 0.695005
vt 0.607671 0.750000
vt 0.392329 0.750000
vt 0.375000 0.695005
vn 0.000000 0.979115 -0.203307
vn 0.000000 0.979115 -0.203307
vn 0.000000 0.979115 -0.203307
vn 0.000000 0.979115 -0.203307
vn 0.000000 -0.979115 0.203310
vn 0.000000 -0.979115 0.203310
vn 0.000000 -0.979115 0.203310
vn 0.000000 -0.979115 0.203310
vn 1.000000 -0.000001 0.000000
vn 1.000000 -0.000001 0.000000
vn 1.000000 -0.000001 0.000000
vn 1.000000 -0.000001 0.000000
vn -1.000000 0.000000 0.000000
vn -1.000000 0.000000 0.000000
vn -1.000000 0.000000 0.000000
vn -1.000000 0.000000 0.000000
vn 0.000000 0.203312 0.979114
vn 0.000000 0.203312 0.979114
vn 0.000000 0.203312 0.979114
vn 0.000000 0.203312 0.979114
vn 0.000000 0.203312 0.979114
vn 0.000000 0.203312 0.979114
vn 0.000000 0.203312 0.979114
vn 0.000000 0.203312 0.979114
vn -0.707109 0.692337 -0.143758
vn -0.707109 0.692337 -0.143758
vn -0.707109 0.692337 -0.143758
vn -0.707109 0.692337 -0.143758
vn 0.707108 0.692338 -0.143758
vn 0.707108 0.692338 -0.143758
vn 0.707108 0.692338 -0.143758
vn 0.707108 0.692338 -0.143758
vn -0.707108 -0.692339 0.143755
vn -0.707108 -0.692339 0.143755
vn -0.707108 -0.692339 0.143755
vn -0.707108 -0.692339 0.143755
vn 0.707107 -0.692340 0.143752
vn 0.707107 -0.692340 0.143752
vn 0.707107 -0.692340 0.143752
vn 0.707107 -0.692340 0.143752
vn 0.000001 -0.203312 -0.979114
vn -0.000000 -0.203313 -0.979114
vn -0.000000 -0.203313 -0.979114
vn 0.000001 -0.203312 -0.979114
vn -0.000000 -0.203313 -0.979114
vn -0.000000 -0.203313 -0.979114
vn 0.000001 -0.203313 -0.979114
vn 0.000001 -0.203313 -0.979114
vn 0.000003 -0.203313 -0.979114
vn 0.000003 -0.203313 -0.979114
vn 0.000001 -0.203313 -0.979114
vn 0.000001 -0.203314 -0.979114
vn -0.000000 -0.203314 -0.979114
vn -0.000000 -0.203314 -0.979114
vn 0.000001 -0.203313 -0.979114
vn 0.000001 -0.203313 -0.979114
vn 0.707107 -0.692339 0.143760
vn 0.707107 -0.692339 0.143760
vn 0.707107 -0.692339 0.143760
vn 0.707107 -0.692339 0.143760
vn 0.000000 -0.979115 0.203305
vn 0.000000 -0.979115 0.203305
vn 0.000000 -0.979115 0.203305
vn 0.000000 -0.979115 0.203305
vn -0.707106 -0.692340 0.143760
vn -0.707106 -0.692340 0.143760
vn -0.707106 -0.692340 0.143760
vn -0.707106 -0.692340 0.143760
vn -1.000000 -0.000000 0.000000
vn -1.000000 -0.000000 0.000000
vn -1.000000 -0.000000 0.000000
vn -1.000000 -0.000000 0.000000
vn -0.707107 0.692340 -0.143756
vn -0.707107 0.692340 -0.143756
vn -0.707107 0.692340 -0.143756
vn -0.707107 0.692340 -0.143756
vn 0.000000 0.979115 -0.203305
vn 0.000000 0.979115 -0.203305
vn 0.000000 0.979115 -0.203305
vn 0.000000 0.979115 -0.203305
vn 0.707106 0.692340 -0.143756
vn 0.707106 0.692340 -0.143756
vn 0.707106 0.692340 -0.143756
vn 0.707106 0.692340 -0.143756
vn 1.000000 0.000000 0.000000
vn 1.000000 0.000000 0.000000
vn 1.000000 0.000000 0.000000
vn 1.000000 0.000000 0.000000
s off
g polySurface15 pCube77
usemtl blinn1SG
f 4/1/1 2/2/2 5/3/3 8/4/4
f 9/5/5 12/6/6 15/7/7 14/8/8
f 13/9/9 16/10/10 7/11/11 6/12/12
f 11/13/13 10/14/14 1/15/15 3/16/16
f 10/14/17 9/17/18 14/18/19 13/9/20 6/12/21 5/3/22 2/2/23 1/15/24
f 1/15/25 2/2/26 4/1/27 3/19/28
f 5/3/29 6/12/30 7/20/31 8/4/32
f 9/5/33 10/21/34 11/22/35 12/6/36
f 13/23/37 14/8/38 15/7/39 16/24/40
s 1
f 3/19/41 4/1/42 17/25/43 18/26/44
f 4/1/42 8/4/45 19/27/46 17/25/43
f 8/4/45 7/20/47 20/28/48 19/27/46
f 7/20/47 16/24/49 21/29/50 20/28/48
f 16/24/49 15/7/51 22/30/52 21/29/50
f 15/7/51 12/6/53 23/31/54 22/30/52
f 12/6/53 11/22/55 24/32/56 23/31/54
f 11/22/55 3/19/41 18/26/44 24/32/56
s off
f 18/26/57 17/25/58 25/33/59 26/34/60
f 17/25/61 19/27/62 27/35/63 25/33/64
f 19/27/65 20/28/66 28/36/67 27/35/68
f 20/28/69 21/29/70 29/37/71 28/36/72
f 21/29/73 22/30/74 30/38/75 29/37/76
f 22/30/77 23/31/78 31/39/79 30/38/80
f 23/31/81 24/32/82 32/40/83 31/39/84
f 24/32/85 18/26/86 26/34/87 32/40/88
g default
v -14.202074 5.616467 4.847118
v -13.838374 5.972570 4.773173
v -8.996281 5.972570 4.773173
v -8.632581 5.616467 4.847118
v -8.632581 4.677404 5.042113
v -8.996281 4.321301 5.116058
v -13.838374 4.321301 5.116058
v -14.202074 4.677404 5.042113
vt 0.993745 0.775671
vt 0.929132 0.988075
vt 0.068994 0.987825
vt 0.004393 0.775385
vt 0.004408 0.215217
vt 0.069021 0.002814
vt 0.929159 0.003063
vt 0.993759 0.215504
vn 0.000000 -0.203312 -0.979114
vn 0.000000 -0.203312 -0.979114
vn 0.000000 -0.203312 -0.979114
vn 0.000000 -0.203312 -0.979114
vn 0.000000 -0.203312 -0.979114
vn 0.000000 -0.203312 -0.979114
vn 0.000000 -0.203312 -0.979114
vn 0.000000 -0.203312 -0.979114
s off
g pCube77 polySurface16
usemtl blinn1SG
f 33/41/89 34/42/90 35/43/91 36/44/92 37/45/93 38/46/94 39/47/95 40/48/96
