# This file uses centimeters as units for non-parametric coordinates.

mtllib teste.mtl
g default
v -5.068454 0.735378 5.760376
v 2.994290 0.735378 5.760376
v -5.725406 2.011663 3.110126
v 3.651243 2.011663 3.110126
v -5.725406 1.899036 5.760377
v -5.725406 1.904954 3.141744
v 3.651243 1.904954 3.141744
v 3.651243 1.899036 5.760377
v -5.725406 1.833914 5.760377
v -5.725406 1.839611 3.161104
v 3.651243 1.839612 3.161104
v 3.651243 1.833914 5.760377
v -5.765406 1.851452 5.760378
v -5.765406 1.847171 3.122752
v -5.765406 1.916574 5.760378
v -5.765406 1.912514 3.103392
v 3.691243 1.912514 3.103392
v 3.691243 1.847171 3.122752
v 3.691243 1.851452 5.760378
v 3.691243 1.916574 5.760378
v -5.396897 1.287439 3.354810
v -5.068454 0.735378 4.133524
v 3.322734 1.287439 3.354810
v 2.994290 0.735378 4.133524
v 3.106868 2.011663 3.110126
v 3.106868 2.005383 5.760377
v -5.180125 2.011663 3.110127
v 3.106868 2.573826 3.110126
v 3.106868 2.359681 5.760063
v 3.651243 2.359681 5.760063
v 3.651243 2.573826 3.110126
v -5.725406 2.356541 5.760377
v -5.725406 2.573827 3.110126
v -5.180125 2.356541 5.760377
v -5.180125 2.573827 3.110126
v -5.180125 2.005383 5.760377
vt 0.983457 0.004613
vt 0.987769 0.005696
vt 0.851935 0.568687
vt 0.918394 0.542597
vt 0.850921 0.460537
vt 0.784452 0.650739
vt 0.680330 0.564870
vt 0.970687 0.282564
vt 0.896398 0.282215
vt 0.980545 0.567139
vt 0.727769 0.283274
vt 0.858095 0.003558
vt 0.923329 0.626373
vt 0.669109 0.282600
vt 0.717397 0.286058
vt 0.786407 0.005918
vt 0.907608 0.278820
vt 0.007672 0.997548
vt 0.795772 0.281381
vt 0.014388 0.997449
vt 0.805323 0.002643
vt 0.832387 0.280580
vt 0.997135 0.279121
vt 0.800092 0.282218
vt 0.669109 0.626776
vt 0.970063 0.003649
vt 0.205774 0.874961
vt 0.726525 0.002756
vt 0.933107 0.003819
vt 0.669115 0.567614
vt 0.999500 0.330472
vt 0.989724 0.299575
vt 0.484690 0.874984
vt 0.205845 0.002830
vt 0.788603 0.287915
vt 0.923255 0.567211
vt 0.989724 0.286075
vt 0.999498 0.284152
vt 0.022123 0.001885
vt 0.788362 0.566831
vt 0.484761 0.002853
vt 0.989724 0.286907
vt 0.739492 0.565034
vt 0.726495 0.626782
vt 0.911525 0.282837
vt 0.726495 0.282607
vt 0.669139 0.002750
vt 0.022004 0.988694
vt 0.999501 0.333332
vt 0.726500 0.567620
vt 0.791176 0.281464
vt 0.669249 0.285924
vt 0.847524 0.567022
vt 0.980619 0.626302
vt 0.837236 0.282571
vt 0.785059 0.283272
vt 0.785048 0.003481
vt 0.825889 0.288069
vt 0.727758 0.003484
vt 0.099285 0.036259
vt 0.102159 0.003210
vt 0.104042 0.920871
vt 0.099230 0.953922
vt 0.496861 0.851984
vt 0.204428 0.886099
vt 0.202688 0.037570
vt 0.487294 0.003507
vt 0.784705 0.821950
vt 0.658494 0.001576
vt 0.668062 0.850053
vt 0.851194 0.289325
vt 0.832360 0.002993
vt 0.825506 0.002983
vt 0.000553 0.002320
vt 0.825507 0.282607
vt 0.906573 0.003234
vt 0.804687 0.282303
vt 0.007725 0.002321
vt 0.020253 0.998162
vt 0.992539 0.279205
vt 0.919412 0.821752
vt 0.813813 0.281032
vt 0.979248 0.000499
vt 0.820694 0.283058
vt 0.000499 0.997548
vt 0.820630 0.003433
vt 0.974084 0.278037
vt 0.813776 0.003445
vt 0.985901 0.289540
vt 0.978680 0.278121
vt 0.037704 0.001683
vt 0.919523 0.548201
vt 0.985979 0.563091
vt 0.037644 0.988491
vt 0.033836 0.001886
vt 0.010409 0.006434
vt 0.033717 0.988695
vt 0.669109 0.561512
vt 0.010274 0.993239
vt 0.790617 0.001805
vt 0.809532 0.006758
vt 0.014524 0.002225
vt 0.016152 0.007147
vt 0.020266 0.002938
vt 0.016139 0.993953
vt 0.991978 0.001583
vn 0.000000 -0.331030 -0.943620
vn 0.000000 -0.331030 -0.943620
vn 0.000000 -0.331030 -0.943620
vn 0.000000 -0.331030 -0.943620
vn 0.000000 -1.000000 0.000000
vn 0.000000 -1.000000 0.000000
vn 0.000000 -1.000000 0.000000
vn 0.000000 -1.000000 0.000000
vn 0.859232 -0.511585 -0.001121
vn 0.858534 -0.512756 -0.000397
vn 0.859066 -0.511864 -0.001035
vn 0.858672 -0.512526 -0.000664
vn 0.858239 -0.513250 0.000000
vn 0.000000 0.000000 0.000000
vn 0.000000 1.000000 0.000000
vn 0.000000 0.000000 0.000000
vn 0.000000 -0.000000 0.000000
vn 0.000000 -0.000000 0.000000
vn 0.000000 -0.178543 0.983932
vn 0.000000 0.996751 0.080549
vn 0.000000 0.996751 0.080549
vn 0.000000 0.996751 0.080549
vn 0.000000 0.996751 0.080549
vn -1.000000 0.000000 0.000000
vn -1.000000 0.000000 0.000000
vn -1.000000 0.000000 0.000000
vn -1.000000 0.000000 0.000000
vn -1.000000 0.000000 0.000000
vn 0.000000 -0.284085 -0.958799
vn 0.000000 -0.284085 -0.958799
vn 0.000000 -0.284085 -0.958799
vn 0.000000 -0.284085 -0.958799
vn -1.000000 -0.000002 0.000000
vn -1.000000 -0.000002 0.000000
vn -1.000000 -0.000002 0.000000
vn -1.000000 -0.000002 0.000000
vn 0.000000 -0.284077 -0.958801
vn 0.000000 -0.284077 -0.958801
vn 0.000000 -0.284077 -0.958801
vn 0.000000 -0.284077 -0.958801
vn 1.000000 0.000000 0.000000
vn 1.000000 0.000000 0.000000
vn 1.000000 0.000000 0.000000
vn 1.000000 0.000000 0.000000
vn -0.401562 -0.915830 -0.002008
vn -0.399632 -0.916674 -0.001974
vn -0.023786 -0.985221 -0.169629
vn -0.025049 -0.985447 -0.168126
vn 0.401567 0.915827 0.002070
vn 0.023926 0.985242 0.169488
vn 0.399650 0.916665 0.002037
vn 0.025195 0.985469 0.167979
vn -0.023927 0.985242 0.169488
vn -0.025195 0.985469 0.167979
vn 0.023786 -0.985221 -0.169629
vn 0.025048 -0.985447 -0.168126
vn 0.401567 -0.915828 -0.002008
vn 0.399637 -0.916671 -0.001974
vn -0.401574 0.915824 0.002070
vn -0.399657 0.916662 0.002037
vn -0.859233 -0.511583 -0.001121
vn -0.859067 -0.511863 -0.001035
vn -0.858535 -0.512755 -0.000397
vn -0.858672 -0.512525 -0.000664
vn -0.858239 -0.513250 0.000000
vn 0.000000 -0.815791 -0.578347
vn 0.000000 -0.815791 -0.578347
vn 0.000000 -0.815791 -0.578347
vn 0.000000 -0.815791 -0.578347
vn 0.000000 0.999997 0.002370
vn 0.000000 0.999997 0.002370
vn 0.000000 0.999997 0.002370
vn 0.000000 0.999997 0.002370
vn 0.000000 0.996656 0.081713
vn 0.000000 0.996656 0.081713
vn 0.000000 0.996656 0.081713
vn 0.000000 0.996656 0.081713
vn -1.000000 0.000001 -0.000000
vn -1.000000 0.000001 -0.000000
vn -1.000000 0.000001 -0.000000
vn -1.000000 0.000001 -0.000000
vn 1.000000 0.000000 0.000000
vn 1.000000 0.000001 0.000000
vn 1.000000 -0.000000 0.000000
vn 1.000000 -0.000001 0.000000
vn 1.000000 0.000002 0.000000
vn 0.000000 0.000000 -1.000000
vn 0.000000 0.000000 -1.000000
vn 0.000000 0.000000 -1.000000
vn 0.000000 0.000000 -1.000000
vn 1.000000 0.000000 -0.000000
vn 1.000000 0.000000 -0.000000
vn 1.000000 0.000000 -0.000000
vn 1.000000 0.000000 -0.000000
vn 0.000000 -0.000000 -1.000000
vn 0.000000 -0.000000 -1.000000
vn 0.000000 -0.000000 -1.000000
vn 0.000000 -0.000000 -1.000000
s off
g polySurface42 pCube3
usemtl aiAmbientOcclusion1SG
f 10/94/1 11/91/2 23/60/3 21/63/4
f 22/64/5 24/67/6 2/69/7 1/70/8
s 1
f 11/92/9 12/81/10 23/3/11
f 23/3/11 12/81/10 24/6/12
f 2/68/13 24/6/12 12/81/10
s off
f 3/49/14 27/31/15 4/38/16
f 4/37/17 27/32/18 25/42/19
f 28/11/20 29/59/21 30/57/22 31/56/23
s 2
f 33/43/24 3/7/25 32/15/26
f 3/7/25 6/98/27 32/15/26
f 6/98/27 5/52/28 32/15/26
s off
f 3/48/29 4/39/30 7/95/31 6/97/32
f 14/82/33 13/88/34 15/86/35 16/84/36
f 16/85/37 17/74/38 18/78/39 14/18/40
f 19/72/41 18/22/42 17/75/43 20/73/44
s 3
f 9/90/45 13/87/46 10/1/47
f 10/1/47 13/87/46 14/83/48
s 4
f 5/51/49 6/16/50 15/19/51
f 15/19/51 6/16/50 16/100/52
f 6/99/50 7/96/53 17/102/54 16/20/52
s 3
f 11/105/55 10/103/47 14/104/48 18/79/56
f 12/80/57 11/2/55 19/23/58
f 19/23/58 11/2/55 18/106/56
s 4
f 8/77/59 20/24/60 7/101/53
f 7/101/53 20/24/60 17/21/54
s 5
f 10/93/61 21/4/62 9/89/63
f 21/4/62 22/5/64 9/89/63
f 22/5/64 1/71/65 9/89/63
s off
f 22/65/66 21/62/67 23/61/68 24/66/69
f 27/33/70 36/27/71 26/34/72 25/41/73
f 33/14/74 32/47/75 34/28/76 35/46/77
f 25/40/78 26/35/79 29/58/80 28/53/81
s 6
f 31/55/82 30/12/83 4/9/84
f 4/9/84 30/12/83 7/17/85
f 30/12/83 8/76/86 7/17/85
s off
f 4/36/87 25/10/88 28/54/89 31/13/90
f 36/26/91 27/8/92 35/45/93 34/29/94
f 27/30/95 3/50/96 33/44/97 35/25/98
